<svg viewBox="0 0 180 38" fill="none" xmlns="http://www.w3.org/2000/svg">
<path fill-rule="evenodd" clip-rule="evenodd" d="M20.9366 12.0386V19.0944C20.8785 19.1066 20.822 19.1295 20.7669 19.1601C20.6722 19.2151 20.5943 19.293 20.5392 19.3893L16.2602 26.9188C16.0921 27.2122 16.196 27.5867 16.4895 27.7532C16.5812 27.8052 16.6851 27.8327 16.7905 27.8327H18.3386C18.6763 27.8327 18.9499 28.1062 18.9499 28.444V37.8654H12.9134C5.78124 37.8654 0 32.0842 0 24.952C0 17.8198 5.78124 12.0386 12.9134 12.0386H20.9366Z" fill="white"/>
<path fill-rule="evenodd" clip-rule="evenodd" d="M38.0527 2.86929V35.5731C38.0527 36.8385 37.0257 37.8655 35.7604 37.8655H23.2412V28.444C23.2412 28.1063 23.5147 27.8327 23.8525 27.8327H25.3838C25.7215 27.8327 25.995 27.5592 25.995 27.2214C25.995 27.1145 25.9675 27.0105 25.914 26.9173L21.6014 19.3863C21.4639 19.1479 21.1919 19.0363 20.9366 19.0944V2.86929C20.9366 1.60393 21.9636 0.576965 23.229 0.576965H35.7604C37.0257 0.576965 38.0527 1.60393 38.0527 2.86929Z" fill="white"/>
<path d="M56.8191 31.5081C57.9607 31.5081 59.0197 31.2987 59.9978 30.8815C60.7313 30.5682 61.3502 30.1434 61.8545 29.607L61.8928 29.5657V31.1413H66.1718V8.0041H61.5871V15.8546L61.5214 15.7904C61.121 15.4068 60.658 15.0828 60.1322 14.8184L60.0436 14.7756C59.0961 14.3172 58.0111 14.0879 56.7885 14.0879C55.1992 14.0879 53.7626 14.4746 52.4789 15.2494C51.1952 16.0242 50.1759 17.068 49.4225 18.3822C48.6691 19.6965 48.2916 21.1682 48.2916 22.7988C48.2916 24.408 48.663 25.8751 49.4072 27.2C50.1515 28.525 51.1647 29.5734 52.4484 30.3482C53.7321 31.1214 55.1885 31.5081 56.8191 31.5081ZM57.3692 27.3819C56.5333 27.3819 55.7845 27.1878 55.1228 26.8012C54.461 26.4145 53.946 25.8735 53.5793 25.1813C53.2125 24.489 53.0291 23.6943 53.0291 22.7972C53.0291 21.9002 53.2125 21.1116 53.5793 20.4285C53.946 19.7454 54.461 19.2059 55.1228 18.8086C55.7845 18.4113 56.5333 18.2126 57.3692 18.2126C58.2052 18.2126 58.9387 18.4067 59.5699 18.7933C60.201 19.18 60.6962 19.7209 61.0522 20.4132C61.4083 21.1055 61.5871 21.9002 61.5871 22.7972C61.5871 23.6943 61.4083 24.489 61.0522 25.1813C60.6962 25.8735 60.201 26.4145 59.5699 26.8012C58.9387 27.1878 58.2052 27.3819 57.3692 27.3819ZM77.5723 31.5081C78.7138 31.5081 79.7622 31.34 80.7204 31.0038C81.6786 30.6676 82.5084 30.1938 83.2114 29.5825C83.9144 28.9712 84.4294 28.2576 84.7549 27.443L81.0872 25.7009C80.7616 26.2709 80.3078 26.7202 79.727 27.0457C79.1463 27.3712 78.4479 27.5347 77.6334 27.5347C76.7363 27.5347 75.9722 27.336 75.3411 26.9387C74.7099 26.5414 74.2407 25.9866 73.9351 25.273C73.7869 24.9291 73.6845 24.5578 73.6279 24.1619L73.6172 24.0809H85.305C85.3799 23.8762 85.4334 23.6317 85.4655 23.3489L85.4731 23.271C85.5037 22.9546 85.519 22.6337 85.519 22.3082C85.519 21.1468 85.3356 20.0724 84.9688 19.0837C84.6021 18.0949 84.0672 17.2238 83.3642 16.4704C82.6612 15.717 81.8008 15.1302 80.7815 14.713C79.7622 14.2958 78.5916 14.0864 77.2666 14.0864C75.6773 14.0864 74.2514 14.4639 72.9876 15.2173C71.7238 15.9707 70.7213 17.0007 69.977 18.3043C69.2328 19.6079 68.8614 21.0963 68.8614 22.7667C68.8614 24.3759 69.2175 25.843 69.9312 27.1679C70.6449 28.4929 71.6535 29.5474 72.957 30.3314C74.2606 31.1153 75.7995 31.5081 77.5723 31.5081ZM80.6623 20.7189H73.7364L73.7395 20.7082C73.7853 20.5049 73.8419 20.3108 73.9076 20.1259L73.9366 20.048C74.2224 19.2946 74.6503 18.723 75.2203 18.3364C75.7904 17.9497 76.4735 17.7557 77.2681 17.7557C78.0827 17.7557 78.7704 17.9543 79.3312 18.3517C79.8921 18.749 80.2833 19.2885 80.508 19.9716C80.5859 20.2069 80.6379 20.4545 80.6638 20.7128L80.6623 20.7189ZM92.7933 37.2542V29.8561L92.804 29.8652C93.2395 30.2611 93.7393 30.5866 94.3078 30.8418L94.3979 30.8815C95.3653 31.2987 96.4198 31.5081 97.5613 31.5081C99.1919 31.5081 100.648 31.1214 101.932 30.3466C103.216 29.5718 104.229 28.5235 104.973 27.1985C105.717 25.8735 106.089 24.4065 106.089 22.7972C106.089 21.1666 105.711 19.695 104.958 18.3807C104.204 17.0664 103.185 16.0227 101.901 15.2479C100.618 14.473 99.1812 14.0864 97.5919 14.0864C96.3693 14.0864 95.2843 14.3156 94.3368 14.7741C93.6262 15.118 93.0271 15.5673 92.5396 16.1235L92.4877 16.1846V14.4532H88.2086V37.2542H92.7933ZM97.0112 27.3819C96.1966 27.3819 95.4677 27.1878 94.8258 26.8012C94.184 26.4145 93.6842 25.8735 93.3282 25.1813C92.9721 24.489 92.7933 23.6943 92.7933 22.7972C92.7933 21.9002 92.9721 21.1055 93.3282 20.4132C93.6842 19.7209 94.184 19.18 94.8258 18.7933C95.4677 18.4067 96.1966 18.2126 97.0112 18.2126C97.867 18.2126 98.6204 18.4113 99.2729 18.8086C99.9255 19.2059 100.434 19.7454 100.801 20.4285C101.168 21.1116 101.351 21.9002 101.351 22.7972C101.351 23.6943 101.168 24.489 100.801 25.1813C100.434 25.8735 99.9255 26.4145 99.2729 26.8012C98.6204 27.1878 97.867 27.3819 97.0112 27.3819ZM113.363 31.1413V8.0041H108.778V31.1413H113.363ZM125.008 31.5081C126.659 31.5081 128.156 31.1306 129.501 30.3772C130.846 29.6238 131.92 28.5892 132.726 27.2749C133.531 25.9607 133.933 24.4676 133.933 22.7972C133.933 21.1055 133.531 19.6079 132.726 18.3043C131.92 17.0007 130.846 15.9707 129.501 15.2173C128.156 14.4639 126.659 14.0864 125.008 14.0864C123.358 14.0864 121.855 14.4639 120.5 15.2173C119.144 15.9707 118.065 17.0007 117.26 18.3043C116.455 19.6079 116.053 21.1055 116.053 22.7972C116.053 24.4676 116.455 25.9607 117.26 27.2749C118.065 28.5892 119.144 29.6238 120.5 30.3772C121.855 31.1306 123.358 31.5081 125.008 31.5081ZM125.008 27.3819C124.172 27.3819 123.439 27.1878 122.807 26.8012C122.176 26.4145 121.681 25.8735 121.325 25.1813C120.969 24.489 120.79 23.6943 120.79 22.7972C120.79 21.9002 120.969 21.1116 121.325 20.4285C121.681 19.7454 122.176 19.2059 122.807 18.8086C123.439 18.4113 124.172 18.2126 125.008 18.2126C125.844 18.2126 126.571 18.4113 127.193 18.8086C127.815 19.2059 128.304 19.7454 128.661 20.4285C129.017 21.1116 129.195 21.9002 129.195 22.7972C129.195 23.6943 129.017 24.489 128.661 25.1813C128.304 25.8735 127.815 26.4145 127.193 26.8012C126.571 27.1878 125.844 27.3819 125.008 27.3819ZM141.207 12.9555V8.37088H136.623V12.9555H141.207ZM141.207 31.1413V14.4532H136.623V31.1413H141.207ZM151.171 31.1413V18.4265H154.747V14.4532H151.171V14.2087C151.171 13.4751 151.39 12.9204 151.828 12.5429C152.267 12.1654 152.913 11.9775 153.769 11.9775C153.933 11.9775 154.09 11.9821 154.243 11.9928C154.396 12.0034 154.575 12.0279 154.778 12.0692V8.15693C154.575 8.11566 154.319 8.08051 154.014 8.04995C153.708 8.01938 153.422 8.0041 153.158 8.0041C151.772 8.0041 150.59 8.24862 149.612 8.73765C148.634 9.22668 147.886 9.92966 147.366 10.8466C146.846 11.7635 146.587 12.8837 146.587 14.2087V14.4532H143.775V18.4265H146.587V31.1413H151.171Z" fill="white"/>
<path d="M162.266 31.508C163.163 31.508 163.977 31.3903 164.711 31.1565C165.445 30.9227 166.106 30.5651 166.698 30.0868C166.895 29.9278 167.086 29.7536 167.272 29.5657L167.278 29.558V31.1412H171.557V20.1381C171.557 18.9354 171.256 17.8809 170.656 16.9747C170.055 16.0684 169.215 15.3594 168.134 14.8505C167.054 14.3416 165.811 14.0863 164.405 14.0863C163.224 14.0863 162.133 14.2697 161.135 14.6365C160.137 15.0033 159.281 15.5229 158.568 16.1953C157.854 16.8677 157.334 17.6731 157.009 18.6099L160.677 20.352C160.962 19.6185 161.415 19.0271 162.037 18.5793C162.659 18.1315 163.377 17.9069 164.191 17.9069C165.047 17.9069 165.724 18.1208 166.224 18.5487C166.724 18.9766 166.973 19.5069 166.973 20.1381V20.5843L162.358 21.3301C161.075 21.5272 160 21.8573 159.128 22.3219L159.041 22.3693C158.155 22.8583 157.498 23.465 157.07 24.1879C156.642 24.9107 156.428 25.7421 156.428 26.6789C156.428 27.6768 156.662 28.5387 157.131 29.2615C157.6 29.9844 158.273 30.5407 159.148 30.9273C160.024 31.3139 161.063 31.508 162.266 31.508ZM163.183 28.1459C162.613 28.1459 162.133 28.0038 161.746 27.718C161.36 27.4323 161.166 27.0349 161.166 26.526C161.166 25.9759 161.338 25.5526 161.685 25.2576C162.032 24.9627 162.53 24.7533 163.183 24.631L166.973 23.954V24.4782C166.973 25.1231 166.828 25.7161 166.537 26.2571L166.499 26.3274C166.183 26.8882 165.74 27.3314 165.17 27.6569C164.599 27.9824 163.936 28.1459 163.183 28.1459ZM179.504 12.9555V8.37082H174.92V12.9555H179.504ZM179.504 31.1412V14.4531H174.92V31.1412H179.504Z" fill="white"/>
</svg>
