<svg viewBox="0 0 467 458" fill="none" xmlns="http://www.w3.org/2000/svg">
<path fill-rule="evenodd" clip-rule="evenodd" d="M466.57 28.38V429.31C466.57 444.84 454 457.41 438.47 457.41H283.12V341.91C283.12 337.79 286.47 334.42 290.61 334.42H309.39C313.53 334.42 316.88 331.07 316.88 326.93C316.88 325.63 316.54 324.34 315.89 323.22L263.02 230.89C261.69 228.55 259.27 227.2 256.74 227.14C255.41 227.09 254.04 227.41 252.79 228.12C251.63 228.77 250.67 229.75 250 230.91L197.54 323.23C195.5 326.83 196.75 331.4 200.35 333.45C201.47 334.08 202.75 334.42 204.06 334.42H223.02C227.16 334.42 230.51 337.79 230.51 341.91V457.41H158.38C70.9503 457.41 0.0703125 386.54 0.0703125 299.1C0.0703125 211.69 70.9503 140.79 158.38 140.79H256.74V28.38C256.74 12.87 269.33 0.280029 284.84 0.280029H438.47C454 0.280029 466.57 12.87 466.57 28.38Z" fill="white"/>
</svg>
