<svg viewBox="0 0 210 206" fill="none" xmlns="http://www.w3.org/2000/svg">
<path fill-rule="evenodd" clip-rule="evenodd" d="M115.542 63.1707H71.265C31.9064 63.1707 -6.84857e-05 95.0356 -6.84857e-05 134.343C-6.84857e-05 173.651 31.9064 205.516 71.265 205.516H115.542V63.1707Z" fill="#63789D"/>
<path fill-rule="evenodd" clip-rule="evenodd" d="M128.193 0H197.349C204.336 0 210 5.65651 210 12.6342V192.881C210 199.859 204.336 205.516 197.349 205.516H115.542V12.6342C115.542 5.65651 121.206 0 128.193 0Z" fill="#434B58"/>
<path fill-rule="evenodd" clip-rule="evenodd" d="M113.351 103.681L89.7319 145.187C88.8113 146.805 89.3782 148.861 90.998 149.781C91.5061 150.069 92.0805 150.221 92.6649 150.221H101.205C103.068 150.221 104.578 151.729 104.578 153.59V205.516H128.26V153.59C128.26 151.729 129.77 150.221 131.634 150.221H140.084C141.947 150.221 143.458 148.712 143.458 146.852C143.458 146.264 143.304 145.687 143.012 145.177L119.212 103.671C118.286 102.057 116.224 101.497 114.608 102.422C114.084 102.722 113.65 103.156 113.351 103.681Z" fill="white"/>
</svg>
