<svg xmlns="http://www.w3.org/2000/svg" viewBox="0 0 1492 518">
  <g fill="none" fill-rule="evenodd" transform="translate(149 138)">
    <path fill="#63789D" d="M0,75 L52.5,75 C99.1680614,75 137,112.831939 137,159.5 C137,206.168061 99.1680614,244 52.5,244 L0,244 L0,244 L0,75 Z" transform="matrix(-1 0 0 1 137 0)"/>
    <path fill="#434B58" d="M152,0 L234,0 C242.284271,-1.52179594e-15 249,6.71572875 249,15 L249,229 C249,237.284271 242.284271,244 234,244 L137,244 L137,244 L137,15 C137,6.71572875 143.715729,1.52179594e-15 152,0 Z"/>
    <path fill="#FFF" d="M134.402158,123.09586 L106.39648,172.374192 C105.30495,174.294832 105.977075,176.736678 107.897715,177.828209 C108.500145,178.17058 109.181183,178.350584 109.874106,178.350584 L120.000179,178.350584 C122.209318,178.350584 124.000179,180.141445 124.000179,182.350584 L124.000179,244 L124.000179,244 L152.07985,244 L152.07985,182.350584 C152.07985,180.141445 153.870711,178.350584 156.07985,178.350584 L166.099867,178.350584 C168.309006,178.350584 170.099867,176.559723 170.099867,174.350584 C170.099867,173.65321 169.917545,172.967954 169.570986,172.362788 L141.350902,123.084455 C140.253073,121.167409 137.809033,120.503303 135.891987,121.601132 C135.270525,121.957023 134.756007,122.473233 134.402158,123.09586 Z"/>
    <g fill-rule="nonzero" transform="translate(316 48.6)">
      <path fill="#63789D" d="M55.8,153.8 C63.2666667,153.8 70.2,152.433333 76.6,149.7 C81.4,147.65 85.45,144.86875 88.75,141.35625 L88.999,141.087 L89,151.4 L117,151.4 L117,2.7000624e-13 L87,2.7000624e-13 L86.999,51.369 L86.5688477,50.9481445 C83.949707,48.4368164 80.9192383,46.3157227 77.4774414,44.5848633 L76.9,44.3 C70.7,41.3 63.6,39.8 55.6,39.8 C45.2,39.8 35.8,42.3333333 27.4,47.4 C19,52.4666667 12.3333333,59.3 7.4,67.9 C2.46666667,76.5 -3.41060513e-13,86.1333333 -3.41060513e-13,96.8 C-3.41060513e-13,107.333333 2.43333333,116.933333 7.3,125.6 C12.1666667,134.266667 18.8,141.133333 27.2,146.2 C35.6,151.266667 45.1333333,153.8 55.8,153.8 Z M59.4,126.8 C53.9333333,126.8 49.0333333,125.533333 44.7,123 C40.3666667,120.466667 37,116.933333 34.6,112.4 C32.2,107.866667 31,102.666667 31,96.8 C31,90.9333333 32.2,85.7666667 34.6,81.3 C37,76.8333333 40.3666667,73.3 44.7,70.7 C49.0333333,68.1 53.9333333,66.8 59.4,66.8 C64.8666667,66.8 69.6666667,68.0666667 73.8,70.6 C77.9333333,73.1333333 81.1666667,76.6666667 83.5,81.2 C85.8333333,85.7333333 87,90.9333333 87,96.8 C87,102.666667 85.8333333,107.866667 83.5,112.4 C81.1666667,116.933333 77.9333333,120.466667 73.8,123 C69.6666667,125.533333 64.8666667,126.8 59.4,126.8 Z M191.6,153.8 C199.066667,153.8 205.933333,152.7 212.2,150.5 C218.466667,148.3 223.9,145.2 228.5,141.2 C233.1,137.2 236.466667,132.533333 238.6,127.2 L238.6,127.2 L214.6,115.8 C212.466667,119.533333 209.5,122.466667 205.7,124.6 C201.9,126.733333 197.333333,127.8 192,127.8 C186.133333,127.8 181.133333,126.5 177,123.9 C172.866667,121.3 169.8,117.666667 167.8,113 C166.834483,110.747126 166.16417,108.323345 165.789061,105.728656 L165.717,105.2 L242.2,105.2 C242.688889,103.855556 243.037731,102.259028 243.246528,100.410417 L243.3,99.9 C243.5,97.8333333 243.6,95.7333333 243.6,93.6 C243.6,86 242.4,78.9666667 240,72.5 C237.6,66.0333333 234.1,60.3333333 229.5,55.4 C224.9,50.4666667 219.266667,46.6333333 212.6,43.9 C205.933333,41.1666667 198.266667,39.8 189.6,39.8 C179.2,39.8 169.866667,42.2666667 161.6,47.2 C153.333333,52.1333333 146.766667,58.8666667 141.9,67.4 C137.033333,75.9333333 134.6,85.6666667 134.6,96.6 C134.6,107.133333 136.933333,116.733333 141.6,125.4 C146.266667,134.066667 152.866667,140.966667 161.4,146.1 C169.933333,151.233333 180,153.8 191.6,153.8 Z M211.822,83.2 L166.497,83.2 L166.513912,83.1262782 C166.813555,81.7934205 167.179231,80.5227111 167.610939,79.3141498 L167.8,78.8 C169.666667,73.8666667 172.466667,70.1333333 176.2,67.6 C179.933333,65.0666667 184.4,63.8 189.6,63.8 C194.933333,63.8 199.433333,65.1 203.1,67.7 C206.766667,70.3 209.333333,73.8333333 210.8,78.3 C211.305747,79.8402299 211.645026,81.4557669 211.817836,83.1466112 L211.822,83.2 Z M291.2,191.4 L291.2,142.987 L291.270312,143.051563 C294.115365,145.639323 297.395215,147.768783 301.109863,149.439941 L301.7,149.7 C308.033333,152.433333 314.933333,153.8 322.4,153.8 C333.066667,153.8 342.6,151.266667 351,146.2 C359.4,141.133333 366.033333,134.266667 370.9,125.6 C375.766667,116.933333 378.2,107.333333 378.2,96.8 C378.2,86.1333333 375.733333,76.5 370.8,67.9 C365.866667,59.3 359.2,52.4666667 350.8,47.4 C342.4,42.3333333 333,39.8 322.6,39.8 C314.6,39.8 307.5,41.3 301.3,44.3 C296.65,46.55 292.73125,49.49375 289.54375,53.13125 L289.2,53.531 L289.2,42.2 L261.2,42.2 L261.2,191.4 L291.2,191.4 Z M318.8,126.8 C313.466667,126.8 308.7,125.533333 304.5,123 C300.3,120.466667 297.033333,116.933333 294.7,112.4 C292.366667,107.866667 291.2,102.666667 291.2,96.8 C291.2,90.9333333 292.366667,85.7333333 294.7,81.2 C297.033333,76.6666667 300.3,73.1333333 304.5,70.6 C308.7,68.0666667 313.466667,66.8 318.8,66.8 C324.4,66.8 329.333333,68.1 333.6,70.7 C337.866667,73.3 341.2,76.8333333 343.6,81.3 C346,85.7666667 347.2,90.9333333 347.2,96.8 C347.2,102.666667 346,107.866667 343.6,112.4 C341.2,116.933333 337.866667,120.466667 333.6,123 C329.333333,125.533333 324.4,126.8 318.8,126.8 Z M425.8,151.4 L425.8,2.7000624e-13 L395.8,2.7000624e-13 L395.8,151.4 L425.8,151.4 Z M502,153.8 C512.8,153.8 522.6,151.333333 531.4,146.4 C540.2,141.466667 547.233333,134.7 552.5,126.1 C557.766667,117.5 560.4,107.733333 560.4,96.8 C560.4,85.7333333 557.766667,75.9333333 552.5,67.4 C547.233333,58.8666667 540.2,52.1333333 531.4,47.2 C522.6,42.2666667 512.8,39.8 502,39.8 C491.2,39.8 481.366667,42.2666667 472.5,47.2 C463.633333,52.1333333 456.566667,58.8666667 451.3,67.4 C446.033333,75.9333333 443.4,85.7333333 443.4,96.8 C443.4,107.733333 446.033333,117.5 451.3,126.1 C456.566667,134.7 463.633333,141.466667 472.5,146.4 C481.366667,151.333333 491.2,153.8 502,153.8 Z M502,126.8 C496.533333,126.8 491.733333,125.533333 487.6,123 C483.466667,120.466667 480.233333,116.933333 477.9,112.4 C475.566667,107.866667 474.4,102.666667 474.4,96.8 C474.4,90.9333333 475.566667,85.7666667 477.9,81.3 C480.233333,76.8333333 483.466667,73.3 487.6,70.7 C491.733333,68.1 496.533333,66.8 502,66.8 C507.466667,66.8 512.233333,68.1 516.3,70.7 C520.366667,73.3 523.566667,76.8333333 525.9,81.3 C528.233333,85.7666667 529.4,90.9333333 529.4,96.8 C529.4,102.666667 528.233333,107.866667 525.9,112.4 C523.566667,116.933333 520.366667,120.466667 516.3,123 C512.233333,125.533333 507.466667,126.8 502,126.8 Z M608,32.4 L608,2.4 L578,2.4 L578,32.4 L608,32.4 Z M608,151.4 L608,42.2 L578,42.2 L578,151.4 L608,151.4 Z M673.2,151.4 L673.2,68.2 L696.6,68.2 L696.6,42.2 L673.2,42.2 L673.2,40.6 C673.2,35.8 674.633333,32.1666667 677.5,29.7 C680.366667,27.2333333 684.6,26 690.2,26 C691.266667,26 692.3,26.0333333 693.3,26.1 C694.3,26.1666667 695.466667,26.3333333 696.8,26.6 L696.8,26.6 L696.8,1 C695.466667,0.733333333 693.8,0.5 691.8,0.3 C689.8,0.1 687.933333,2.7000624e-13 686.2,2.7000624e-13 C677.133333,2.7000624e-13 669.4,1.6 663,4.8 C656.6,8 651.7,12.6 648.3,18.6 C644.9,24.6 643.2,31.9333333 643.2,40.6 L643.2,40.6 L643.2,42.2 L624.8,42.2 L624.8,68.2 L643.2,68.2 L643.2,151.4 L673.2,151.4 Z"/>
      <path fill="#434B58" d="M745.8,153.8 C751.666667,153.8 757,153.033333 761.8,151.5 C766.6,149.966667 770.933333,147.633333 774.8,144.5 C776.088889,143.455556 777.340741,142.318519 778.555556,141.088889 L778.6,141.043 L778.6,151.4 L806.6,151.4 L806.6,79.4 C806.6,71.5333333 804.633333,64.6333333 800.7,58.7 C796.766667,52.7666667 791.266667,48.1333333 784.2,44.8 C777.133333,41.4666667 769,39.8 759.8,39.8 C752.066667,39.8 744.933333,41 738.4,43.4 C731.866667,45.8 726.266667,49.2 721.6,53.6 C716.933333,58 713.533333,63.2666667 711.4,69.4 L711.4,69.4 L735.4,80.8 C737.266667,76 740.233333,72.1333333 744.3,69.2 C748.366667,66.2666667 753.066667,64.8 758.4,64.8 C764,64.8 768.433333,66.2 771.7,69 C774.966667,71.8 776.6,75.2666667 776.6,79.4 L776.6,79.4 L776.6,82.317 L746.4,87.2 C738.012903,88.4903226 730.968158,90.6547347 725.265765,93.6932362 L724.7,94 C718.9,97.2 714.6,101.166667 711.8,105.9 C709,110.633333 707.6,116.066667 707.6,122.2 C707.6,128.733333 709.133333,134.366667 712.2,139.1 C715.266667,143.833333 719.666667,147.466667 725.4,150 C731.133333,152.533333 737.933333,153.8 745.8,153.8 Z M751.8,131.8 C748.066667,131.8 744.933333,130.866667 742.4,129 C739.866667,127.133333 738.6,124.533333 738.6,121.2 C738.6,117.6 739.733333,114.833333 742,112.9 C744.266667,110.966667 747.533333,109.6 751.8,108.8 L751.8,108.8 L776.6,104.371 L776.6,107.8 C776.6,112.016667 775.650984,115.896586 773.752951,119.439757 L773.5,119.9 C771.433333,123.566667 768.533333,126.466667 764.8,128.6 C761.066667,130.733333 756.733333,131.8 751.8,131.8 Z M858.6,32.4 L858.6,2.4 L828.6,2.4 L828.6,32.4 L858.6,32.4 Z M858.6,151.4 L858.6,42.2 L828.6,42.2 L828.6,151.4 L858.6,151.4 Z"/>
    </g>
  </g>
</svg>
