<svg xmlns="http://www.w3.org/2000/svg" viewBox="0 0 518 518">
  <g fill="none" fill-rule="evenodd" transform="translate(119 107)">
    <path fill="#63789D" d="M0,75 L52.5,75 C99.1680614,75 137,112.831939 137,159.5 C137,206.168061 99.1680614,244 52.5,244 L0,244 L0,244 L0,75 Z" transform="matrix(-1 0 0 1 137 0)"/>
    <path fill="#434B58" d="M152,0 L234,0 C242.284271,-1.52179594e-15 249,6.71572875 249,15 L249,229 C249,237.284271 242.284271,244 234,244 L137,244 L137,244 L137,15 C137,6.71572875 143.715729,1.52179594e-15 152,0 Z"/>
    <path fill="#FFF" d="M133.402158,123.09586 L105.39648,172.374192 C104.30495,174.294832 104.977075,176.736678 106.897715,177.828209 C107.500145,178.17058 108.181183,178.350584 108.874106,178.350584 L119.000179,178.350584 C121.209318,178.350584 123.000179,180.141445 123.000179,182.350584 L123.000179,244 L123.000179,244 L151.07985,244 L151.07985,182.350584 C151.07985,180.141445 152.870711,178.350584 155.07985,178.350584 L165.099867,178.350584 C167.309006,178.350584 169.099867,176.559723 169.099867,174.350584 C169.099867,173.65321 168.917545,172.967954 168.570986,172.362788 L140.350902,123.084455 C139.253073,121.167409 136.809033,120.503303 134.891987,121.601132 C134.270525,121.957023 133.756007,122.473233 133.402158,123.09586 Z"/>
    <g fill-rule="nonzero" transform="translate(10.55 284.58)">
      <path fill="#63789D" d="M16.74,46.14 C18.98,46.14 21.06,45.73 22.98,44.91 C24.42,44.295 25.635,43.460625 26.625,42.406875 L26.7,42.324 L26.7,45.42 L35.1,45.42 L35.1,2.84217094e-14 L26.1,2.84217094e-14 L26.1,15.414 L25.9968,15.3096 C25.2544,14.5928 24.4010667,13.9812444 23.4368,13.4749333 L23.07,13.29 C21.21,12.39 19.08,11.94 16.68,11.94 C13.56,11.94 10.74,12.7 8.22,14.22 C5.7,15.74 3.7,17.79 2.22,20.37 C0.74,22.95 -1.42108547e-14,25.84 -1.42108547e-14,29.04 C-1.42108547e-14,32.2 0.73,35.08 2.19,37.68 C3.65,40.28 5.64,42.34 8.16,43.86 C10.68,45.38 13.54,46.14 16.74,46.14 Z M17.82,38.04 C16.18,38.04 14.71,37.66 13.41,36.9 C12.11,36.14 11.1,35.08 10.38,33.72 C9.66,32.36 9.3,30.8 9.3,29.04 C9.3,27.28 9.66,25.73 10.38,24.39 C11.1,23.05 12.11,21.99 13.41,21.21 C14.71,20.43 16.18,20.04 17.82,20.04 C19.46,20.04 20.9,20.42 22.14,21.18 C23.38,21.94 24.35,23 25.05,24.36 C25.75,25.72 26.1,27.28 26.1,29.04 C26.1,30.8 25.75,32.36 25.05,33.72 C24.35,35.08 23.38,36.14 22.14,36.9 C20.9,37.66 19.46,38.04 17.82,38.04 Z M57.48,46.14 C59.72,46.14 61.78,45.81 63.66,45.15 C65.54,44.49 67.17,43.56 68.55,42.36 C69.93,41.16 70.94,39.76 71.58,38.16 L71.58,38.16 L64.38,34.74 C63.74,35.86 62.85,36.74 61.71,37.38 C60.57,38.02 59.2,38.34 57.6,38.34 C55.84,38.34 54.34,37.95 53.1,37.17 C51.86,36.39 50.94,35.3 50.34,33.9 C50.04,33.2 49.835,32.445 49.725,31.635 L49.716,31.56 L72.66,31.56 C72.7933333,31.1933333 72.8919444,30.7641667 72.9558333,30.2725 L72.99,29.97 C73.05,29.35 73.08,28.72 73.08,28.08 C73.08,25.8 72.72,23.69 72,21.75 C71.28,19.81 70.23,18.1 68.85,16.62 C67.47,15.14 65.78,13.99 63.78,13.17 C61.78,12.35 59.48,11.94 56.88,11.94 C53.76,11.94 50.96,12.68 48.48,14.16 C46,15.64 44.03,17.66 42.57,20.22 C41.11,22.78 40.38,25.7 40.38,28.98 C40.38,32.14 41.08,35.02 42.48,37.62 C43.88,40.22 45.86,42.29 48.42,43.83 C50.98,45.37 54,46.14 57.48,46.14 Z M63.546,24.96 L49.949,24.96 L50.0268367,24.6355102 C50.0860204,24.4044898 50.1521429,24.18 50.2252041,23.9620408 L50.34,23.64 C50.9,22.16 51.74,21.04 52.86,20.28 C53.98,19.52 55.32,19.14 56.88,19.14 C58.48,19.14 59.83,19.53 60.93,20.31 C62.03,21.09 62.8,22.15 63.24,23.49 C63.3657143,23.8728571 63.4571429,24.2712245 63.5142857,24.685102 L63.546,24.96 Z M87.36,57.42 L87.36,42.894 L87.4896,43.0128 C88.2661333,43.6997333 89.1479111,44.2757333 90.1349333,44.7408 L90.51,44.91 C92.41,45.73 94.48,46.14 96.72,46.14 C99.92,46.14 102.78,45.38 105.3,43.86 C107.82,42.34 109.81,40.28 111.27,37.68 C112.73,35.08 113.46,32.2 113.46,29.04 C113.46,25.84 112.72,22.95 111.24,20.37 C109.76,17.79 107.76,15.74 105.24,14.22 C102.72,12.7 99.9,11.94 96.78,11.94 C94.38,11.94 92.25,12.39 90.39,13.29 C89.026,13.95 87.8717333,14.8089778 86.9272,15.8669333 L86.76,16.061 L86.76,12.66 L78.36,12.66 L78.36,57.42 L87.36,57.42 Z M95.64,38.04 C94.04,38.04 92.61,37.66 91.35,36.9 C90.09,36.14 89.11,35.08 88.41,33.72 C87.71,32.36 87.36,30.8 87.36,29.04 C87.36,27.28 87.71,25.72 88.41,24.36 C89.11,23 90.09,21.94 91.35,21.18 C92.61,20.42 94.04,20.04 95.64,20.04 C97.32,20.04 98.8,20.43 100.08,21.21 C101.36,21.99 102.36,23.05 103.08,24.39 C103.8,25.73 104.16,27.28 104.16,29.04 C104.16,30.8 103.8,32.36 103.08,33.72 C102.36,35.08 101.36,36.14 100.08,36.9 C98.8,37.66 97.32,38.04 95.64,38.04 Z M127.74,45.42 L127.74,2.84217094e-14 L118.74,2.84217094e-14 L118.74,45.42 L127.74,45.42 Z M150.6,46.14 C153.84,46.14 156.78,45.4 159.42,43.92 C162.06,42.44 164.17,40.41 165.75,37.83 C167.33,35.25 168.12,32.32 168.12,29.04 C168.12,25.72 167.33,22.78 165.75,20.22 C164.17,17.66 162.06,15.64 159.42,14.16 C156.78,12.68 153.84,11.94 150.6,11.94 C147.36,11.94 144.41,12.68 141.75,14.16 C139.09,15.64 136.97,17.66 135.39,20.22 C133.81,22.78 133.02,25.72 133.02,29.04 C133.02,32.32 133.81,35.25 135.39,37.83 C136.97,40.41 139.09,42.44 141.75,43.92 C144.41,45.4 147.36,46.14 150.6,46.14 Z M150.6,38.04 C148.96,38.04 147.52,37.66 146.28,36.9 C145.04,36.14 144.07,35.08 143.37,33.72 C142.67,32.36 142.32,30.8 142.32,29.04 C142.32,27.28 142.67,25.73 143.37,24.39 C144.07,23.05 145.04,21.99 146.28,21.21 C147.52,20.43 148.96,20.04 150.6,20.04 C152.24,20.04 153.67,20.43 154.89,21.21 C156.11,21.99 157.07,23.05 157.77,24.39 C158.47,25.73 158.82,27.28 158.82,29.04 C158.82,30.8 158.47,32.36 157.77,33.72 C157.07,35.08 156.11,36.14 154.89,36.9 C153.67,37.66 152.24,38.04 150.6,38.04 Z M182.4,9.72 L182.4,0.72 L173.4,0.72 L173.4,9.72 L182.4,9.72 Z M182.4,45.42 L182.4,12.66 L173.4,12.66 L173.4,45.42 L182.4,45.42 Z M201.96,45.42 L201.96,20.46 L208.98,20.46 L208.98,12.66 L201.96,12.66 L201.96,12.18 C201.96,10.74 202.39,9.65 203.25,8.91 C204.11,8.17 205.38,7.8 207.06,7.8 C207.38,7.8 207.69,7.81 207.99,7.83 C208.29,7.85 208.64,7.9 209.04,7.98 L209.04,7.98 L209.04,0.3 C208.64,0.22 208.14,0.15 207.54,0.09 C206.94,0.03 206.38,2.84217094e-14 205.86,2.84217094e-14 C203.14,2.84217094e-14 200.82,0.48 198.9,1.44 C196.98,2.4 195.51,3.78 194.49,5.58 C193.47,7.38 192.96,9.58 192.96,12.18 L192.96,12.18 L192.96,12.66 L187.44,12.66 L187.44,20.46 L192.96,20.46 L192.96,45.42 L201.96,45.42 Z"/>
      <path fill="#434B58" d="M223.74,46.14 C225.5,46.14 227.1,45.91 228.54,45.45 C229.98,44.99 231.28,44.29 232.44,43.35 C232.788,43.068 233.127,42.7635 233.457,42.4365 L233.58,42.311 L233.58,45.42 L241.98,45.42 L241.98,23.82 C241.98,21.46 241.39,19.39 240.21,17.61 C239.03,15.83 237.38,14.44 235.26,13.44 C233.14,12.44 230.7,11.94 227.94,11.94 C225.62,11.94 223.48,12.3 221.52,13.02 C219.56,13.74 217.88,14.76 216.48,16.08 C215.08,17.4 214.06,18.98 213.42,20.82 L213.42,20.82 L220.62,24.24 C221.18,22.8 222.07,21.64 223.29,20.76 C224.51,19.88 225.92,19.44 227.52,19.44 C229.2,19.44 230.53,19.86 231.51,20.7 C232.49,21.54 232.98,22.58 232.98,23.82 L232.98,23.82 L232.98,24.696 L223.92,26.16 C221.493333,26.5333333 219.441244,27.1505778 217.763733,28.0117333 L217.41,28.2 C215.67,29.16 214.38,30.35 213.54,31.77 C212.7,33.19 212.28,34.82 212.28,36.66 C212.28,38.62 212.74,40.31 213.66,41.73 C214.58,43.15 215.9,44.24 217.62,45 C219.34,45.76 221.38,46.14 223.74,46.14 Z M225.54,39.54 C224.42,39.54 223.48,39.26 222.72,38.7 C221.96,38.14 221.58,37.36 221.58,36.36 C221.58,35.28 221.92,34.45 222.6,33.87 C223.28,33.29 224.26,32.88 225.54,32.64 L225.54,32.64 L232.98,31.311 L232.98,32.34 C232.98,33.55 232.719514,34.6675694 232.198542,35.6927083 L232.05,35.97 C231.43,37.07 230.56,37.94 229.44,38.58 C228.32,39.22 227.02,39.54 225.54,39.54 Z M257.58,9.72 L257.58,0.72 L248.58,0.72 L248.58,9.72 L257.58,9.72 Z M257.58,45.42 L257.58,12.66 L248.58,12.66 L248.58,45.42 L257.58,45.42 Z"/>
    </g>
  </g>
</svg>
